<svg xmlns="http://www.w3.org/2000/svg" fill="none" viewBox="0 0 23 23">
  <path fill="#fff" d="M20.276.942c.084-.07.103-.09.192-.151.232-.162.489-.266.73-.295a1.03 1.03 0 01.385.022c.117.03.221.086.306.16.28.248.329.709.123 1.172-.063.14-.147.28-.248.407-.067.086-.088.104-.163.184L2.44 21.6c-.08.075-.099.096-.184.163-.225.177-.48.3-.723.35a1.12 1.12 0 01-.399.014.791.791 0 01-.33-.126c-.261-.18-.371-.522-.292-.908.021-.105.056-.211.102-.317.063-.14.147-.279.249-.407.066-.085.087-.104.162-.183l19.16-19.16.09-.085z"/>
  <path fill="#fff" d="M2.352.942c-.084-.07-.104-.09-.192-.151a1.659 1.659 0 00-.73-.295 1.03 1.03 0 00-.385.022.76.76 0 00-.307.16C.458.926.41 1.387.615 1.85c.064.141.147.28.248.407.067.086.089.104.164.184l19.16 19.16c.08.075.098.096.183.163.225.177.48.3.724.35.14.03.274.034.398.014a.792.792 0 00.33-.126c.262-.18.372-.522.293-.908a1.593 1.593 0 00-.103-.317 1.935 1.935 0 00-.248-.407c-.067-.085-.088-.104-.163-.183L2.441 1.027a7.55 7.55 0 01-.09-.085z"/>
</svg>
