<svg width="24" height="24" viewBox="0 0 24 24" fill="none" xmlns="http://www.w3.org/2000/svg">
<path d="M8.25544 12.5216H9.99143V19.7419C9.99143 19.8845 10.1058 20 10.2469 20H13.1903C13.3314 20 13.4457 19.8845 13.4457 19.7419V12.5556H15.4414C15.5712 12.5556 15.6803 12.4572 15.6952 12.327L15.9983 9.66885C16.0066 9.59572 15.9837 9.52248 15.9352 9.46761C15.8867 9.4127 15.8174 9.38126 15.7446 9.38126H13.4458V7.71499C13.4458 7.2127 13.7135 6.95799 14.2416 6.95799C14.3168 6.95799 15.7446 6.95799 15.7446 6.95799C15.8857 6.95799 16 6.84243 16 6.69992V4.25997C16 4.11742 15.8857 4.00191 15.7446 4.00191H13.6732C13.6586 4.00119 13.6262 4 13.5784 4C13.219 4 11.9697 4.07128 10.9829 4.98844C9.88956 6.0048 10.0415 7.22173 10.0779 7.43272V9.38121H8.25544C8.11433 9.38121 8 9.49672 8 9.63928V12.2635C8 12.406 8.11433 12.5216 8.25544 12.5216Z" fill="#C9924A"/>
</svg>
