<svg xmlns="http://www.w3.org/2000/svg" viewBox="0 0 76 84" fill="currentColor">
    <path d="M74.589 69.03c-7.347 8.294-17.98 12.857-29.967 12.857a40.02 40.02 0 01-39.634-34.8h46.246a7.065 7.065 0 003.586-.919 3.403 3.403 0 001.595-3.151 3.2 3.2 0 00-1.276-2.716 5.683 5.683 0 00-2.03-.822l-1.73-.396a11.42 11.42 0 01-2.195-.648 1.151 1.151 0 01-.618-1.112 1.711 1.711 0 01.56-1.285 2.843 2.843 0 011.934-.551 2.949 2.949 0 012.426.88c.291.392.48.85.551 1.333v.203h2.03V37.7a3.655 3.655 0 00-1.45-3.2 6.031 6.031 0 00-3.45-.966 4.833 4.833 0 00-3.442 1.131 3.807 3.807 0 00-1.238 2.9 2.823 2.823 0 001.305 2.533c.744.41 1.551.695 2.388.84l1.692.378c.677.128 1.33.363 1.933.696a1.412 1.412 0 01.522 1.247 1.643 1.643 0 01-1.343 1.643 4.69 4.69 0 01-1.634.242 3.083 3.083 0 01-2.746-1.102 3.238 3.238 0 01-.444-1.586v-.232H46.1v.242c-.037.951.23 1.89.764 2.678h-7.656l-4.36-6.09 5.443-5.22h-3.006l-5.704 5.684v-5.684h-2.117v11.29h-6.341l-4.108-11.29h-2.233l-4.215 11.29H4.833a38.798 38.798 0 01-.135-3.045H7.83v-1.933H4.717A40.03 40.03 0 0144.66 1.933c11.253 0 22.147 3.867 28.401 10.228l1.373-1.354C67.822 4.147 56.406 0 44.66 0A41.953 41.953 0 002.794 40.156H0v1.933h2.755c0 1.025 0 2.04.126 3.045H0v1.933h3.074a41.953 41.953 0 0041.567 36.734c12.509 0 23.645-4.833 31.359-13.533l-1.411-1.238zM31.58 42.195l1.711-1.595 3.171 4.563H31.63l-.049-2.968zM17.806 36.59l1.527 4.504h-3.19l1.663-4.504zm-2.34 6.35h4.563l.735 2.185h-6.041l.744-2.184z" />
    <path d="M16.433 52.664a1.042 1.042 0 01.812.28c.177.214.29.471.33.745h.792a1.935 1.935 0 00-.61-1.353 2.088 2.088 0 00-1.314-.387 1.933 1.933 0 00-1.547.696 2.9 2.9 0 00-.609 1.933 2.61 2.61 0 00.551 1.702 1.828 1.828 0 001.49.686c.49.023.974-.132 1.362-.435.395-.36.637-.858.677-1.392h-.783a1.672 1.672 0 01-.397.831.966.966 0 01-.792.31 1.016 1.016 0 01-.967-.493 2.205 2.205 0 01-.3-1.199 2.901 2.901 0 01.203-1.189 1.131 1.131 0 011.102-.735zm8.005 1.296l-1.238.174a2 2 0 00-1.092.444 1.43 1.43 0 000 2.03 1.467 1.467 0 001.092.426 2.2 2.2 0 00.967-.242c.272-.13.512-.319.706-.55.012.152.058.3.135.434a.667.667 0 00.6.29h.27l.29-.068v-.59h-.27a.251.251 0 01-.213-.067.416.416 0 01-.049-.203v-2.755a1.055 1.055 0 00-.531-.967 2.436 2.436 0 00-1.354-.328 2.398 2.398 0 00-1.276.338 1.353 1.353 0 00-.57 1.237h.744a.967.967 0 01.194-.56 1.072 1.072 0 01.889-.339 1.54 1.54 0 01.831.184.64.64 0 01.29.59.63.63 0 01-.058.31.397.397 0 01-.357.212zm.396 1.14a1.083 1.083 0 01-.677 1.054 1.7 1.7 0 01-.802.203.967.967 0 01-.61-.203.648.648 0 01-.25-.541.705.705 0 01.367-.667 1.74 1.74 0 01.657-.184l.474-.058c.156-.023.311-.055.464-.096a1.13 1.13 0 00.377-.155v.647zm4.785-2.996v6.64h.802V56.31c.13.18.29.338.474.464.27.167.582.25.899.241.442.006.87-.149 1.208-.434a2.736 2.736 0 00.832-2.214 2.504 2.504 0 00-.561-1.779 1.788 1.788 0 00-1.373-.619 1.605 1.605 0 00-.966.232c-.21.13-.39.302-.532.503v-.6h-.783zm.967 1.401a1.208 1.208 0 012.28-.048c.115.31.17.637.165.967.035.495-.094.987-.367 1.401a1.218 1.218 0 01-2.078-.26 2.505 2.505 0 01-.165-.967 3.413 3.413 0 01.126-1.093h.039zm7.704-3.19h-.822v.9h.822v-.9zm0 1.789h-.822v4.746h.822v-4.746zm5.665.638v-.658H43.2V50.75h-.812v1.334h-.648v.658h.648v3.151a1.26 1.26 0 00.203.745.86.86 0 00.754.28c.11.01.22.01.328 0 .094.01.188.01.28 0v-.629h-.27a.84.84 0 01-.319-.048.368.368 0 01-.164-.338v-3.161h.754zm6.099 1.218l-1.276.174a2 2 0 00-1.092.444 1.333 1.333 0 00-.416 1.035 1.314 1.314 0 00.426.967 1.47 1.47 0 001.083.415c.336-.006.667-.088.966-.241a2.02 2.02 0 00.706-.551c.017.152.063.3.135.434a.667.667 0 00.6.29h.27l.29-.067v-.59h-.222c-.116 0-.184 0-.223-.068a.415.415 0 01-.067-.135v-2.784a1.063 1.063 0 00-.522-.967 2.494 2.494 0 00-1.363-.328 2.397 2.397 0 00-1.276.338 1.373 1.373 0 00-.57 1.237h.744c.01-.2.078-.395.193-.56a1.074 1.074 0 01.89-.339c.288-.018.577.046.83.184a.638.638 0 01.29.59.628.628 0 01-.057.31.395.395 0 01-.339.212zm.397 1.14a1.083 1.083 0 01-.667 1.054 1.77 1.77 0 01-.812.203.879.879 0 01-.6-.203.656.656 0 01-.26-.541.705.705 0 01.367-.667c.205-.104.428-.167.657-.184l.483-.058c.154-.024.305-.056.455-.096a1.13 1.13 0 00.377-.155v.647zm5.674-4.785h-.802v6.535h.802v-6.535z" />
</svg>