<svg fill="#fff" viewBox="0 0 13 25" width="13" height="25">
    <path d="M6.164 0A6.164 6.164 0 000 6.164v5.854c0 2.527 1.547 4.72 3.74 5.674v-1.986c-1.187-.8-1.986-2.14-1.986-3.688V6.164a4.425 4.425 0 014.41-4.41c2.45 0 4.41 1.985 4.41 4.41v5.854c0 1.547-.8 2.888-1.986 3.688v1.986c2.192-.955 3.74-3.12 3.74-5.674V6.164A6.164 6.164 0 006.163 0z">
    </path>
    <path d="M6.164 7.788a.87.87 0 00.877-.876V4.539a.87.87 0 00-.877-.877.87.87 0 00-.877.877v2.373c0 .464.387.876.877.876zM8.51 20.064l-1.47 1.47v-7.71a.87.87 0 00-.876-.878.87.87 0 00-.877.877v7.685l-1.47-1.47a.887.887 0 00-1.238 0 .888.888 0 000 1.238l2.966 2.966c.18.18.387.258.619.258a.838.838 0 00.619-.258l2.966-2.966a.888.888 0 000-1.238c-.361-.335-.903-.335-1.238.026z">
    </path>
</svg>