<svg width="24" height="24" viewBox="0 0 24 24" fill="none" xmlns="http://www.w3.org/2000/svg">
<path d="M22.8039 16.7032C22.7448 16.6086 22.379 15.8488 20.6189 14.2871C18.7762 12.6518 19.0238 12.9173 21.2432 10.0897C22.5949 8.36763 23.1353 7.31598 22.9662 6.86641C22.8053 6.43786 21.8111 6.55091 21.8111 6.55091L18.5053 6.56932C18.5053 6.56932 18.2606 6.53777 18.0777 6.64162C17.9003 6.74415 17.7862 6.98077 17.7862 6.98077C17.7862 6.98077 17.2623 8.31373 16.5637 9.44688C15.091 11.8381 14.501 11.9643 14.2604 11.8157C13.7007 11.47 13.841 10.4249 13.841 9.6835C13.841 7.36594 14.2082 6.39974 13.1246 6.14997C12.7643 6.06715 12.5003 6.01194 11.5803 6.00274C10.4005 5.99091 9.4008 6.00668 8.83563 6.27091C8.45885 6.44706 8.16871 6.84011 8.3461 6.86246C8.56474 6.89007 9.05977 6.98997 9.32242 7.33176C9.66207 7.77214 9.64969 8.76331 9.64969 8.76331C9.64969 8.76331 9.84496 11.491 9.19453 11.8302C8.74763 12.0629 8.13571 11.5883 6.82248 9.41796C6.15006 8.30716 5.64127 7.07805 5.64127 7.07805C5.64127 7.07805 5.54364 6.84932 5.369 6.72706C5.15724 6.57852 4.86022 6.53119 4.86022 6.53119L1.71673 6.5496C1.71673 6.5496 1.24507 6.56274 1.07181 6.75861C0.917801 6.93345 1.05944 7.29364 1.05944 7.29364C1.05944 7.29364 3.52087 12.7977 6.30682 15.5727C8.86313 18.1164 11.7646 17.9494 11.7646 17.9494H13.0792C13.0792 17.9494 13.4766 17.9074 13.6787 17.6984C13.8658 17.5064 13.8589 17.1463 13.8589 17.1463C13.8589 17.1463 13.8327 15.4597 14.6523 15.2112C15.4595 14.9667 16.4963 16.8413 17.595 17.563C18.4256 18.1085 19.0568 17.9889 19.0568 17.9889L21.9953 17.9494C21.9953 17.9494 23.5327 17.8587 22.8039 16.7032Z" fill="#C9924A"/>
</svg>
