<svg xmlns="http://www.w3.org/2000/svg" xmlns:xlink="http://www.w3.org/1999/xlink"><symbol fill="none" viewBox="0 0 16 14" id="auth" xmlns="http://www.w3.org/2000/svg"><path fill="#C9924A" d="M7.25 3.25L6.2 4.3l1.95 1.95H.5v1.5h7.65L6.2 9.7l1.05 1.05L11 7 7.25 3.25zm6.75 9H8v1.5h6c.825 0 1.5-.675 1.5-1.5V1.75c0-.825-.675-1.5-1.5-1.5H8v1.5h6v10.5z"/></symbol><symbol fill="none" viewBox="0 0 23 23" id="cross" xmlns="http://www.w3.org/2000/svg"><path fill="#fff" d="M20.276.942c.084-.07.103-.09.192-.151.232-.162.489-.266.73-.295a1.03 1.03 0 01.385.022c.117.03.221.086.306.16.28.248.329.709.123 1.172-.063.14-.147.28-.248.407-.067.086-.088.104-.163.184L2.44 21.6c-.08.075-.099.096-.184.163-.225.177-.48.3-.723.35a1.12 1.12 0 01-.399.014.791.791 0 01-.33-.126c-.261-.18-.371-.522-.292-.908.021-.105.056-.211.102-.317.063-.14.147-.279.249-.407.066-.085.087-.104.162-.183l19.16-19.16.09-.085z"/><path fill="#fff" d="M2.352.942c-.084-.07-.104-.09-.192-.151a1.659 1.659 0 00-.73-.295 1.03 1.03 0 00-.385.022.76.76 0 00-.307.16C.458.926.41 1.387.615 1.85c.064.141.147.28.248.407.067.086.089.104.164.184l19.16 19.16c.08.075.098.096.183.163.225.177.48.3.724.35.14.03.274.034.398.014a.792.792 0 00.33-.126c.262-.18.372-.522.293-.908a1.593 1.593 0 00-.103-.317 1.935 1.935 0 00-.248-.407c-.067-.085-.088-.104-.163-.183L2.441 1.027a7.55 7.55 0 01-.09-.085z"/></symbol><symbol fill="none" viewBox="0 0 24 24" id="facebook" xmlns="http://www.w3.org/2000/svg"><path d="M8.255 12.522h1.736v7.22c0 .142.115.258.256.258h2.943a.257.257 0 00.256-.258v-7.186h1.995c.13 0 .24-.099.254-.229l.303-2.658a.26.26 0 00-.063-.201.254.254 0 00-.19-.087h-2.3V7.715c0-.502.268-.757.797-.757h1.503A.257.257 0 0016 6.7V4.26a.257.257 0 00-.255-.258h-2.072A2.01 2.01 0 0013.578 4c-.359 0-1.608.071-2.595.988-1.093 1.017-.942 2.234-.905 2.445V9.38H8.255A.257.257 0 008 9.64v2.625c0 .142.114.258.255.258z" fill="#C9924A"/></symbol><symbol fill="none" viewBox="0 0 24 24" id="instagram" xmlns="http://www.w3.org/2000/svg"><path d="M8 3a5 5 0 00-5 5v8a5 5 0 005 5h8a5 5 0 005-5V8a5 5 0 00-5-5H8zm10 2a1 1 0 110 2 1 1 0 010-2zm-6 2a5 5 0 11-.001 10.001A5 5 0 0112 7zm0 2a3 3 0 100 6 3 3 0 000-6z" fill="#C9924A"/></symbol><symbol viewBox="0 0 76 84" fill="currentColor" id="logo" xmlns="http://www.w3.org/2000/svg"><path d="M74.589 69.03c-7.347 8.294-17.98 12.857-29.967 12.857a40.02 40.02 0 01-39.634-34.8h46.246a7.065 7.065 0 003.586-.919 3.403 3.403 0 001.595-3.151 3.2 3.2 0 00-1.276-2.716 5.683 5.683 0 00-2.03-.822l-1.73-.396a11.42 11.42 0 01-2.195-.648 1.151 1.151 0 01-.618-1.112 1.711 1.711 0 01.56-1.285 2.843 2.843 0 011.934-.551 2.949 2.949 0 012.426.88c.291.392.48.85.551 1.333v.203h2.03V37.7a3.655 3.655 0 00-1.45-3.2 6.031 6.031 0 00-3.45-.966 4.833 4.833 0 00-3.442 1.131 3.807 3.807 0 00-1.238 2.9 2.823 2.823 0 001.305 2.533c.744.41 1.551.695 2.388.84l1.692.378c.677.128 1.33.363 1.933.696a1.412 1.412 0 01.522 1.247 1.643 1.643 0 01-1.343 1.643 4.69 4.69 0 01-1.634.242 3.083 3.083 0 01-2.746-1.102 3.238 3.238 0 01-.444-1.586v-.232H46.1v.242c-.037.951.23 1.89.764 2.678h-7.656l-4.36-6.09 5.443-5.22h-3.006l-5.704 5.684v-5.684h-2.117v11.29h-6.341l-4.108-11.29h-2.233l-4.215 11.29H4.833a38.798 38.798 0 01-.135-3.045H7.83v-1.933H4.717A40.03 40.03 0 0144.66 1.933c11.253 0 22.147 3.867 28.401 10.228l1.373-1.354C67.822 4.147 56.406 0 44.66 0A41.953 41.953 0 002.794 40.156H0v1.933h2.755c0 1.025 0 2.04.126 3.045H0v1.933h3.074a41.953 41.953 0 0041.567 36.734c12.509 0 23.645-4.833 31.359-13.533l-1.411-1.238zM31.58 42.195l1.711-1.595 3.171 4.563H31.63l-.049-2.968zM17.806 36.59l1.527 4.504h-3.19l1.663-4.504zm-2.34 6.35h4.563l.735 2.185h-6.041l.744-2.184z"/><path d="M16.433 52.664a1.042 1.042 0 01.812.28c.177.214.29.471.33.745h.792a1.935 1.935 0 00-.61-1.353 2.088 2.088 0 00-1.314-.387 1.933 1.933 0 00-1.547.696 2.9 2.9 0 00-.609 1.933 2.61 2.61 0 00.551 1.702 1.828 1.828 0 001.49.686c.49.023.974-.132 1.362-.435.395-.36.637-.858.677-1.392h-.783a1.672 1.672 0 01-.397.831.966.966 0 01-.792.31 1.016 1.016 0 01-.967-.493 2.205 2.205 0 01-.3-1.199 2.901 2.901 0 01.203-1.189 1.131 1.131 0 011.102-.735zm8.005 1.296l-1.238.174a2 2 0 00-1.092.444 1.43 1.43 0 000 2.03 1.467 1.467 0 001.092.426 2.2 2.2 0 00.967-.242c.272-.13.512-.319.706-.55.012.152.058.3.135.434a.667.667 0 00.6.29h.27l.29-.068v-.59h-.27a.251.251 0 01-.213-.067.416.416 0 01-.049-.203v-2.755a1.055 1.055 0 00-.531-.967 2.436 2.436 0 00-1.354-.328 2.398 2.398 0 00-1.276.338 1.353 1.353 0 00-.57 1.237h.744a.967.967 0 01.194-.56 1.072 1.072 0 01.889-.339 1.54 1.54 0 01.831.184.64.64 0 01.29.59.63.63 0 01-.058.31.397.397 0 01-.357.212zm.396 1.14a1.083 1.083 0 01-.677 1.054 1.7 1.7 0 01-.802.203.967.967 0 01-.61-.203.648.648 0 01-.25-.541.705.705 0 01.367-.667 1.74 1.74 0 01.657-.184l.474-.058c.156-.023.311-.055.464-.096a1.13 1.13 0 00.377-.155v.647zm4.785-2.996v6.64h.802V56.31c.13.18.29.338.474.464.27.167.582.25.899.241.442.006.87-.149 1.208-.434a2.736 2.736 0 00.832-2.214 2.504 2.504 0 00-.561-1.779 1.788 1.788 0 00-1.373-.619 1.605 1.605 0 00-.966.232c-.21.13-.39.302-.532.503v-.6h-.783zm.967 1.401a1.208 1.208 0 012.28-.048c.115.31.17.637.165.967.035.495-.094.987-.367 1.401a1.218 1.218 0 01-2.078-.26 2.505 2.505 0 01-.165-.967 3.413 3.413 0 01.126-1.093h.039zm7.704-3.19h-.822v.9h.822v-.9zm0 1.789h-.822v4.746h.822v-4.746zm5.665.638v-.658H43.2V50.75h-.812v1.334h-.648v.658h.648v3.151a1.26 1.26 0 00.203.745.86.86 0 00.754.28c.11.01.22.01.328 0 .094.01.188.01.28 0v-.629h-.27a.84.84 0 01-.319-.048.368.368 0 01-.164-.338v-3.161h.754zm6.099 1.218l-1.276.174a2 2 0 00-1.092.444 1.333 1.333 0 00-.416 1.035 1.314 1.314 0 00.426.967 1.47 1.47 0 001.083.415c.336-.006.667-.088.966-.241a2.02 2.02 0 00.706-.551c.017.152.063.3.135.434a.667.667 0 00.6.29h.27l.29-.067v-.59h-.222c-.116 0-.184 0-.223-.068a.415.415 0 01-.067-.135v-2.784a1.063 1.063 0 00-.522-.967 2.494 2.494 0 00-1.363-.328 2.397 2.397 0 00-1.276.338 1.373 1.373 0 00-.57 1.237h.744c.01-.2.078-.395.193-.56a1.074 1.074 0 01.89-.339c.288-.018.577.046.83.184a.638.638 0 01.29.59.628.628 0 01-.057.31.395.395 0 01-.339.212zm.397 1.14a1.083 1.083 0 01-.667 1.054 1.77 1.77 0 01-.812.203.879.879 0 01-.6-.203.656.656 0 01-.26-.541.705.705 0 01.367-.667c.205-.104.428-.167.657-.184l.483-.058c.154-.024.305-.056.455-.096a1.13 1.13 0 00.377-.155v.647zm5.674-4.785h-.802v6.535h.802v-6.535z"/></symbol><symbol viewBox="0 0 512 512" id="profile" xmlns="http://www.w3.org/2000/svg"><path fill="#C9924A" d="M255.999 0c-74.443 0-135 60.557-135 135s60.557 135 135 135 135-60.557 135-135-60.557-135-135-135zM478.48 398.68C438.124 338.138 370.579 302 297.835 302h-83.672c-72.744 0-140.288 36.138-180.644 96.68l-2.52 3.779V512H481V402.459l-2.52-3.779z"/></symbol><symbol fill="none" viewBox="0 0 24 24" id="twitter" xmlns="http://www.w3.org/2000/svg"><path d="M21 6.656a7.63 7.63 0 01-2.12.557 3.582 3.582 0 001.623-1.955 7.647 7.647 0 01-2.346.859A3.76 3.76 0 0015.46 5c-2.039 0-3.692 1.583-3.692 3.535 0 .277.032.547.095.805-3.068-.147-5.789-1.555-7.61-3.694a3.396 3.396 0 00-.5 1.777c0 1.227.653 2.31 1.643 2.943a3.82 3.82 0 01-1.673-.444v.044c0 1.713 1.274 3.142 2.962 3.467-.31.08-.636.124-.973.124-.238 0-.47-.023-.695-.066.47 1.406 1.833 2.428 3.448 2.456a7.62 7.62 0 01-4.585 1.51A8.2 8.2 0 013 17.41 10.777 10.777 0 008.66 19c6.793 0 10.506-5.387 10.506-10.06l-.013-.457A7.21 7.21 0 0021 6.656z" fill="#C9924A"/></symbol><symbol fill="none" viewBox="0 0 24 24" id="vk" xmlns="http://www.w3.org/2000/svg"><path d="M22.804 16.703c-.06-.094-.425-.854-2.185-2.416-1.843-1.635-1.595-1.37.624-4.197 1.352-1.722 1.892-2.774 1.723-3.224-.16-.428-1.155-.315-1.155-.315l-3.306.018s-.244-.031-.427.073c-.178.102-.292.339-.292.339s-.524 1.333-1.222 2.466c-1.473 2.391-2.063 2.517-2.304 2.369-.56-.346-.419-1.391-.419-2.133 0-2.317.367-3.283-.716-3.533-.36-.083-.625-.138-1.545-.147-1.18-.012-2.18.004-2.744.268-.377.176-.667.57-.49.591.219.028.714.128.976.47.34.44.328 1.431.328 1.431s.195 2.728-.455 3.067c-.447.233-1.06-.242-2.373-2.412-.672-1.11-1.18-2.34-1.18-2.34s-.098-.229-.273-.35c-.212-.15-.509-.197-.509-.197l-3.143.019s-.472.013-.645.209c-.154.174-.013.535-.013.535s2.462 5.504 5.248 8.279c2.556 2.543 5.458 2.376 5.458 2.376h1.314s.398-.042.6-.25c.187-.193.18-.553.18-.553s-.026-1.686.793-1.935c.808-.244 1.844 1.63 2.943 2.352.83.546 1.462.426 1.462.426l2.938-.04s1.538-.09.809-1.246z" fill="#C9924A"/></symbol></svg>